<svg xmlns="http://www.w3.org/2000/svg" viewBox="0 0 256.42 80.39"><defs><style>.cls-1{fill:#606062;}.cls-1,.cls-2,.cls-3{fill-rule:evenodd;}.cls-2{fill:#f37440;}.cls-3{fill:#96989a;}</style></defs><g id="Layer_2" data-name="Layer 2"><g id="Layer_1-2" data-name="Layer 1"><g id="Layer_1-3" data-name="Layer_1"><path class="cls-1" d="M0,61.54V18.48H5.73V36.23H28V18.48h5.73V61.54H28V41.27H5.73V61.54Zm42.52-37v-6h5.3v6Zm0,37.05V30.33h5.3V61.54ZM54,47.59l8.48-.85A10.35,10.35,0,0,0,65.57,53a9.35,9.35,0,0,0,6.29,2c2.78,0,4.87-.59,6.29-1.78a5.26,5.26,0,0,0,2.13-4.14,4,4,0,0,0-.88-2.61,7.41,7.41,0,0,0-3.12-1.87c-1-.34-3.32-1-6.92-1.87-4.65-1.16-7.9-2.58-9.78-4.28a11.42,11.42,0,0,1-2.09-14.86,11.57,11.57,0,0,1,5.35-4.36,21.17,21.17,0,0,1,8.45-1.5q8.08,0,12.16,3.57a12.77,12.77,0,0,1,4.28,9.58l-8.7.31a7.34,7.34,0,0,0-2.38-4.79,8.71,8.71,0,0,0-5.47-1.47,9.89,9.89,0,0,0-5.87,1.56,3.23,3.23,0,0,0-1.39,2.69,3.3,3.3,0,0,0,1.31,2.61c1.07.93,3.74,1.9,8,2.92a40.62,40.62,0,0,1,9.35,3.09,12.11,12.11,0,0,1,4.74,4.36A13.51,13.51,0,0,1,86.94,56a12.21,12.21,0,0,1-5.81,4.79,24.28,24.28,0,0,1-9.36,1.56c-5.44,0-9.63-1.25-12.53-3.77S54.6,52.38,54,47.59Zm56.58-17.26v6.55h-5.64V49.52a40.1,40.1,0,0,0,.14,4.48,1.81,1.81,0,0,0,.77,1,2.18,2.18,0,0,0,1.38.42,11.12,11.12,0,0,0,3.32-.79l.68,6.41a16.19,16.19,0,0,1-6.49,1.22,10.08,10.08,0,0,1-4-.74,6,6,0,0,1-2.63-2,8.12,8.12,0,0,1-1.17-3.23,41.84,41.84,0,0,1-.25-5.84V36.88H92.92V30.33h3.77V24.15l8.25-4.87v11Zm11.91,9.61L115,38.64a11.92,11.92,0,0,1,4.34-6.78c2.07-1.44,5.13-2.18,9.18-2.18,3.66,0,6.41.42,8.22,1.3a8.06,8.06,0,0,1,3.8,3.32c.74,1.33,1.11,3.8,1.11,7.37l-.15,9.64a34.44,34.44,0,0,0,.4,6,18.23,18.23,0,0,0,1.47,4.2h-8.16a25.31,25.31,0,0,1-.79-2.41,6.71,6.71,0,0,0-.31-1,14.76,14.76,0,0,1-4.51,3.12,12.83,12.83,0,0,1-5.1,1c-3.21,0-5.73-.85-7.57-2.61a9.26,9.26,0,0,1-1.5-11.31A8.41,8.41,0,0,1,119,45.21a28.87,28.87,0,0,1,6.55-1.92,42.86,42.86,0,0,0,8-2v-.82A4.4,4.4,0,0,0,132.38,37c-.8-.71-2.27-1.05-4.45-1.05a5.69,5.69,0,0,0-3.43.91A5.81,5.81,0,0,0,122.49,39.94Zm11,6.69c-1,.34-2.72.77-5,1.25A16.78,16.78,0,0,0,124,49.32a3.45,3.45,0,0,0-1.61,2.89,4,4,0,0,0,1.3,3A4.4,4.4,0,0,0,127,56.49,7.33,7.33,0,0,0,131.27,55a5.13,5.13,0,0,0,2-2.72,17.54,17.54,0,0,0,.31-4Zm12.64-16.3h4.57V28a15.2,15.2,0,0,1,.85-5.87,6.48,6.48,0,0,1,3.09-3.17,11.79,11.79,0,0,1,5.72-1.22,23.15,23.15,0,0,1,7,1.05l-1.08,5.72a17.18,17.18,0,0,0-3.85-.48,3.5,3.5,0,0,0-2.64.85c-.54.57-.79,1.64-.79,3.26v2.21h6.17v6.49H159V61.54h-8.25V36.82h-4.57Zm20,0h4.56V28a15.2,15.2,0,0,1,.85-5.87,6.57,6.57,0,0,1,3.09-3.17,11.89,11.89,0,0,1,5.73-1.22,23.13,23.13,0,0,1,6.94,1.05l-1.05,5.72a17.36,17.36,0,0,0-3.88-.48,3.5,3.5,0,0,0-2.64.85,5,5,0,0,0-.79,3.26v2.21h6.18v6.49H179V61.54h-8.25V36.82H166.2Z"/><g id="_2697908074144" data-name=" 2697908074144"><path class="cls-2" d="M220,11.28c-1.56-5.3-6.69-6.12-11-3.2-4.43,3-7.37,9.55-5.84,14.8s6.69,6.12,11,3.23S221.53,16.53,220,11.28Z"/><path class="cls-2" d="M219.77,11.37c-1.5-5.16-6.46-5.93-10.6-3.12-4.34,3-7.26,9.41-5.76,14.57s6.47,5.89,10.61,3.09C218.35,23,221.27,16.5,219.77,11.37Z"/><path class="cls-2" d="M219.54,11.42c-1.47-5-6.23-5.69-10.23-3-4.28,2.89-7.14,9.24-5.67,14.31s6.24,5.67,10.23,2.95C218.15,22.82,221,16.47,219.54,11.42Z"/><path class="cls-2" d="M219.32,11.48c-1.42-4.85-6-5.47-9.9-2.83-4.16,2.83-7,9.07-5.55,14s6,5.47,9.89,2.83C217.93,22.68,220.76,16.44,219.32,11.48Z"/><path class="cls-2" d="M219.09,11.54c-1.36-4.68-5.78-5.25-9.52-2.7-4.11,2.78-6.89,8.93-5.48,13.78,1.37,4.68,5.79,5.24,9.53,2.72C217.73,22.54,220.51,16.41,219.09,11.54Z"/><path class="cls-2" d="M218.86,11.62c-1.3-4.53-5.58-5-9.18-2.58-4,2.72-6.75,8.76-5.36,13.52,1.31,4.54,5.56,5,9.16,2.58C217.5,22.42,220.25,16.38,218.86,11.62Z"/><path class="cls-2" d="M218.64,11.68c-1.28-4.39-5.36-4.82-8.82-2.47-3.94,2.7-6.63,8.62-5.27,13.27,1.27,4.39,5.33,4.82,8.81,2.46C217.28,22.28,220,16.36,218.64,11.68Z"/><path class="cls-2" d="M218.41,11.74c-1.22-4.23-5.13-4.6-8.45-2.33-3.85,2.61-6.55,8.45-5.21,13,1.24,4.23,5.16,4.59,8.47,2.33C217.08,22.14,219.74,16.3,218.41,11.74Z"/><path class="cls-2" d="M218.21,11.82c-1.19-4.08-4.93-4.39-8.13-2.21-3.75,2.55-6.41,8.28-5.11,12.76,1.19,4.05,4.94,4.36,8.14,2.18C216.85,22,219.51,16.27,218.21,11.82Z"/><path class="cls-2" d="M218,11.88c-1.16-3.91-4.7-4.17-7.76-2.07-3.69,2.49-6.3,8.1-5,12.47,1.16,3.94,4.71,4.17,7.77,2.1C216.65,21.86,219.26,16.24,218,11.88Z"/><path class="cls-2" d="M217.76,11.93c-1.11-3.74-4.48-3.94-7.4-1.92-3.6,2.43-6.18,7.93-4.93,12.21,1.1,3.77,4.48,3.94,7.4,2C216.43,21.74,219,16.21,217.76,11.93Z"/><path class="cls-2" d="M217.53,12c-1.05-3.6-4.25-3.74-7.06-1.84-3.51,2.41-6,7.82-4.82,12,1,3.6,4.26,3.71,7.06,1.81C216.23,21.6,218.75,16.19,217.53,12Z"/><path class="cls-2" d="M217.3,12.08c-1-3.46-4-3.52-6.69-1.71-3.43,2.33-5.92,7.66-4.73,11.74,1,3.43,4,3.49,6.69,1.67C216,21.46,218.49,16.16,217.3,12.08Z"/><path class="cls-2" d="M217.08,12.13c-1-3.29-3.83-3.29-6.35-1.56-3.35,2.27-5.79,7.49-4.62,11.46,1,3.28,3.8,3.28,6.32,1.55C215.77,21.32,218.24,16.1,217.08,12.13Z"/><path class="cls-2" d="M216.85,12.19c-.91-3.12-3.6-3.06-6-1.42-3.26,2.21-5.67,7.32-4.54,11.2.91,3.12,3.58,3.06,6,1.44C215.57,21.17,218,16.07,216.85,12.19Z"/><path class="cls-2" d="M216.62,12.27c-.85-3-3.37-2.86-5.61-1.3-3.17,2.15-5.55,7.14-4.45,10.94.85,2.95,3.35,2.84,5.61,1.31C215.35,21.06,217.73,16,216.62,12.27Z"/><path class="cls-2" d="M216.4,12.33c-.8-2.81-3.15-2.64-5.28-1.19-3.09,2.1-5.41,7-4.36,10.69.82,2.8,3.17,2.63,5.3,1.19C215.15,20.92,217.47,16,216.4,12.33Z"/><path class="cls-2" d="M216.2,12.39c-.8-2.64-2.95-2.41-4.93-1.05-3,2-5.33,6.86-4.28,10.43.79,2.64,2.94,2.41,4.93,1.05C214.92,20.78,217.22,16,216.2,12.39Z"/><path class="cls-2" d="M216,12.47c-.74-2.49-2.72-2.21-4.59-.93-2.92,2-5.19,6.69-4.17,10.17.74,2.47,2.72,2.19,4.57.91C214.7,20.64,217,16,216,12.47Z"/><path class="cls-2" d="M215.74,12.53c-.68-2.33-2.49-2-4.22-.79-2.83,1.92-5.07,6.52-4.08,9.89.68,2.32,2.49,2,4.22.82C214.5,20.52,216.74,15.9,215.74,12.53Z"/><path class="cls-2" d="M215.52,12.59c-.63-2.13-2.27-1.76-3.86-.66-2.75,1.87-5,6.35-4,9.64.62,2.16,2.26,1.76,3.85.68C214.27,20.38,216.48,15.87,215.52,12.59Z"/><path class="cls-2" d="M215.29,12.67c-.57-2-2-1.56-3.51-.57-2.67,1.82-4.82,6.21-3.89,9.41.57,2,2,1.54,3.49.54C214.07,20.24,216.23,15.85,215.29,12.67Z"/><path class="cls-2" d="M215.06,12.73c-.51-1.79-1.81-1.33-3.14-.43-2.58,1.76-4.71,6.07-3.8,9.16.51,1.76,1.81,1.3,3.15.4C213.85,20.1,216,15.82,215.06,12.73Z"/><path class="cls-2" d="M214.84,12.78c-.46-1.61-1.59-1.1-2.78-.28-2.52,1.7-4.59,5.9-3.71,8.87.45,1.62,1.58,1.11,2.77.29C213.65,20,215.72,15.79,214.84,12.78Z"/><path class="cls-2" d="M214.61,12.84c-.06-.17-.25-.71-.45-.82-.46-.2-1.62.42-2,.68-2.41,1.64-4.45,5.73-3.6,8.62,0,.17.23.73.46.82.45.23,1.61-.43,2-.65C213.42,19.84,215.46,15.73,214.61,12.84Z"/><path class="cls-2" d="M214.38,12.93a1.3,1.3,0,0,0-.31-.68c-.42-.17-1.44.42-1.76.65-2.35,1.59-4.33,5.55-3.54,8.36a2.28,2.28,0,0,0,.34.68c.43.14,1.45-.45,1.76-.65C213.19,19.7,215.21,15.7,214.38,12.93Z"/><path class="cls-2" d="M213.93,12.44a4.38,4.38,0,0,0-1.5.63c-2.24,1.53-4.2,5.41-3.43,8.1a3.65,3.65,0,0,0,.23.54,3.4,3.4,0,0,0,1.5-.62C213,19.56,215,15.68,214.16,13A2,2,0,0,0,213.93,12.44Z"/><path class="cls-2" d="M213.82,12.7a4,4,0,0,0-1.25.57c-2.15,1.47-4.08,5.27-3.34,7.85a2.05,2.05,0,0,0,.14.34,3.94,3.94,0,0,0,1.24-.57c2.16-1.47,4.09-5.24,3.35-7.85C213.93,13,213.87,12.81,213.82,12.7Z"/><path class="cls-2" d="M213.68,13a3.65,3.65,0,0,0-1,.48c-2.1,1.42-4,5.11-3.26,7.6,0,0,0,.09.06.14a4.27,4.27,0,0,0,1-.51c2.1-1.41,4-5.07,3.26-7.57C213.7,13.07,213.7,13,213.68,13Z"/><path class="cls-2" d="M213.53,13.27a3.11,3.11,0,0,0-.7.39c-2,1.34-3.8,4.85-3.18,7.23.26-.11.54-.28.71-.37C212.31,19.16,214.16,15.68,213.53,13.27Z"/><path class="cls-2" d="M213.36,13.61a1.46,1.46,0,0,0-.39.25c-1.82,1.22-3.55,4.42-3.15,6.69a3.1,3.1,0,0,0,.4-.23C212,19.08,213.76,15.9,213.36,13.61Z"/><path class="cls-2" d="M213.17,14a.1.1,0,0,0-.06,0A7.92,7.92,0,0,0,210,20.18l.06-.05A7.87,7.87,0,0,0,213.17,14Z"/><path class="cls-2" d="M212.94,14.43a8.08,8.08,0,0,0-2.72,5.3A8,8,0,0,0,212.94,14.43Z"/><path class="cls-2" d="M212.66,15a8.28,8.28,0,0,0-2.13,4.14A8.32,8.32,0,0,0,212.66,15Z"/><path class="cls-2" d="M212.2,15.9A8.54,8.54,0,0,0,211,18.26,8.15,8.15,0,0,0,212.2,15.9Z"/><path class="cls-2" d="M203.24,60a57.37,57.37,0,0,1,6-4.17l3.65-2.26c5.3-10.32,12.47-20,20-28.83C239.7,16.61,247.72,8.08,256.42,2L255,0a121,121,0,0,0-25.63,18.91,135.51,135.51,0,0,0-21.6,25.48l-.22.34-1.73-3.6c-1.28-2.61-4.77-9.5-8.34-9.5s-6.94,2.56-9.44,4.94a12.35,12.35,0,0,1,5.5,4,44,44,0,0,1,5.62,9.58l1.38,3A66.58,66.58,0,0,1,203.24,60Z"/><path class="cls-2" d="M203.36,59.58a60.61,60.61,0,0,1,5.75-4l3.6-2.24c5.3-10.32,12.47-20,20-28.83,6.8-8,14.77-16.53,23.44-22.65L254.89.31c-9.3,4.91-17.77,11.62-25.4,18.77A136.1,136.1,0,0,0,207.92,44.5l-.45.71-1.93-4c-1.22-2.52-4.68-9.38-8.11-9.38s-6.6,2.35-9,4.62a12.83,12.83,0,0,1,5.24,4,43.55,43.55,0,0,1,5.64,9.64l1.39,3A69,69,0,0,1,203.36,59.58Z"/><path class="cls-2" d="M203.47,59.19A66.74,66.74,0,0,1,209,55.42l3.51-2.21c5.33-10.29,12.5-20,20-28.8,6.74-8,14.65-16.44,23.27-22.57l-1-1.24c-9.19,4.9-17.58,11.56-25.18,18.65a136.48,136.48,0,0,0-21.51,25.4l-.68,1-2.1-4.33c-1.16-2.41-4.62-9.27-7.91-9.27s-6.23,2.18-8.59,4.31a13.48,13.48,0,0,1,5,3.91A46.49,46.49,0,0,1,199.53,50l1.39,3C201.77,54.94,202.76,57.12,203.47,59.19Z"/><path class="cls-2" d="M203.58,58.79c1.65-1.28,3.6-2.49,5.28-3.57L212.34,53c5.33-10.29,12.5-20,20-28.78,6.75-8,14.6-16.35,23.13-22.47l-.68-.88c-9.1,4.87-17.43,11.48-24.95,18.51a135.77,135.77,0,0,0-21.48,25.34l-.91,1.42-2.27-4.74c-1.13-2.27-4.59-9.1-7.71-9.1-3,0-5.89,2-8.16,4A13.77,13.77,0,0,1,194,40.17a45.54,45.54,0,0,1,5.7,9.72l1.39,3C201.94,54.77,202.9,56.81,203.58,58.79Z"/><path class="cls-2" d="M203.7,58.42c1.61-1.22,3.46-2.38,5-3.4l3.43-2.13c5.3-10.29,12.5-20,20-28.8,6.69-7.9,14.48-16.21,23-22.33l-.43-.57A121,121,0,0,0,230,19.59,136.08,136.08,0,0,0,208.49,44.9l-1.11,1.76-2.46-5.1c-1-2.19-4.51-9-7.49-9-2.8,0-5.55,1.81-7.74,3.71A13.87,13.87,0,0,1,194.2,40a43.86,43.86,0,0,1,5.73,9.77l1.41,3C202.14,54.57,203,56.52,203.7,58.42Z"/><path class="cls-2" d="M203.81,58.05c1.56-1.16,3.29-2.24,4.79-3.23l3.37-2.1C217.3,42.43,224.48,32.77,232,24c6.66-7.85,14.4-16.13,22.82-22.25l-.17-.2a121.89,121.89,0,0,0-24.49,18.26A136.36,136.36,0,0,0,208.69,45l-1.34,2.13-2.63-5.5c-1-2-4.45-8.84-7.29-8.84-2.6,0-5.24,1.64-7.34,3.43a14.82,14.82,0,0,1,4.31,3.63,46.69,46.69,0,0,1,5.75,9.83l1.39,3C202.31,54.4,203.13,56.24,203.81,58.05Z"/><path class="cls-2" d="M203.92,57.69c1.48-1.11,3.12-2.13,4.57-3.07l3.31-2.07c5.33-10.29,12.51-19.92,20-28.74,6.32-7.48,13.64-15.31,21.57-21.32a122.39,122.39,0,0,0-23,17.44,134.79,134.79,0,0,0-21.4,25.23l-1.56,2.43-2.84-5.84c-.93-1.92-4.39-8.73-7.06-8.73-2.43,0-4.9,1.51-6.91,3.18a15,15,0,0,1,4,3.51,45.56,45.56,0,0,1,5.78,9.9l1.42,3C202.48,54.23,203.27,56,203.92,57.69Z"/><path class="cls-2" d="M204,57.32c1.42-1,3-2,4.33-2.89l3.26-2c5.33-10.26,12.51-19.92,20-28.74A152.6,152.6,0,0,1,250.47,4.45a127.06,127.06,0,0,0-20,15.65,134.51,134.51,0,0,0-21.38,25.17l-1.78,2.81-3-6.21c-.88-1.82-4.33-8.62-6.86-8.62-2.29,0-4.59,1.36-6.52,2.92a15.06,15.06,0,0,1,3.83,3.4,47.44,47.44,0,0,1,5.84,9.92l1.39,3C202.65,54,203.39,55.67,204,57.32Z"/><path class="cls-2" d="M204.15,57c1.33-1,2.81-1.87,4.08-2.72l3.23-2c5.33-10.26,12.51-19.9,20-28.71a164.35,164.35,0,0,1,16.27-17A133.4,133.4,0,0,0,230.6,20.27a133.81,133.81,0,0,0-21.32,25.14l-2,3.15L204.09,42c-.82-1.7-4.3-8.44-6.66-8.44-2.12,0-4.28,1.21-6.12,2.63a17.25,17.25,0,0,1,3.63,3.26,47,47,0,0,1,5.84,10l1.42,3C202.82,53.86,203.53,55.42,204.15,57Z"/><path class="cls-2" d="M204.24,56.58c1.3-.91,2.66-1.76,3.88-2.55l3.15-2c5.35-10.26,12.53-19.93,20-28.71A171.15,171.15,0,0,1,245,8.67a138.77,138.77,0,0,0-14.2,11.77,133.86,133.86,0,0,0-21.29,25.08L207.24,49l-3.37-7a30,30,0,0,0-4.14-6.72c-.45-.51-1.53-1.62-2.3-1.62a10.24,10.24,0,0,0-5.72,2.38,17.22,17.22,0,0,1,3.4,3.15,47.22,47.22,0,0,1,5.89,10l1.42,3.07C203,53.69,203.67,55.13,204.24,56.58Z"/><path class="cls-2" d="M204.35,56.24c1.22-.85,2.49-1.64,3.66-2.38l3.09-2c5.35-10.26,12.5-19.9,20-28.71,3.49-4.08,7.23-8.28,11.23-12.25a146.76,146.76,0,0,0-11.37,9.67,134.36,134.36,0,0,0-21.23,25l-2.47,3.88-3.54-7.37a30.36,30.36,0,0,0-4.11-6.63c-.4-.46-1.45-1.56-2.13-1.56a9.67,9.67,0,0,0-5.33,2.15,16.78,16.78,0,0,1,3.18,3,46.21,46.21,0,0,1,5.92,10.09l1.42,3C203.19,53.52,203.78,54.85,204.35,56.24Z"/><path class="cls-2" d="M204.46,55.87c1.14-.79,2.33-1.53,3.38-2.21l0,0,3.07-1.9c5.35-10.26,12.5-19.87,19.95-28.68,2.72-3.21,5.64-6.5,8.68-9.67-2.92,2.35-5.76,4.85-8.48,7.4a132.89,132.89,0,0,0-21.2,25L207.16,50l-3.72-7.74a30.63,30.63,0,0,0-4.05-6.6c-.34-.37-1.39-1.47-2-1.47a9.27,9.27,0,0,0-4.93,1.92,18,18,0,0,1,3,2.87,47.52,47.52,0,0,1,6,10.12l1.42,3.06C203.36,53.35,203.92,54.6,204.46,55.87Z"/><path class="cls-2" d="M204.58,55.53c1-.74,2.15-1.42,3.14-2.07l0,0,3-1.87c5.35-10.23,12.5-19.87,20-28.66,2-2.29,4-4.64,6.1-6.94-1.9,1.61-3.77,3.29-5.56,5a132.74,132.74,0,0,0-21.17,24.94l-3,4.57-3.89-8.08a29.11,29.11,0,0,0-4-6.55c-.26-.31-1.33-1.39-1.79-1.39a8.64,8.64,0,0,0-4.53,1.7,16.15,16.15,0,0,1,2.75,2.67,47.2,47.2,0,0,1,6,10.2l1.42,3.06C203.53,53.18,204.07,54.34,204.58,55.53Z"/><path class="cls-2" d="M204.66,55.16c1-.65,2-1.3,3-1.9l0,0,2.92-1.81c5.38-10.26,12.53-19.87,20-28.66,1.11-1.33,2.27-2.69,3.46-4-.88.79-1.76,1.58-2.61,2.38A133.8,133.8,0,0,0,210.27,46l-3.17,4.91-4-8.48a30.19,30.19,0,0,0-3.83-6.26c-.28-.37-1.31-1.48-1.79-1.53a8.1,8.1,0,0,0-4.14,1.47,20.08,20.08,0,0,1,2.53,2.52,48.44,48.44,0,0,1,6,10.27l1.41,3C203.73,53,204.21,54.06,204.66,55.16Z"/><path class="cls-2" d="M204.77,54.82c.91-.62,1.85-1.19,2.7-1.76l0,0,2.89-1.79c5.38-10.23,12.53-19.87,20-28.66.26-.28.49-.56.74-.85a131.65,131.65,0,0,0-20.61,24.41l-3.4,5.27-4.25-8.84a31.43,31.43,0,0,0-3.66-6.1,6,6,0,0,0-1.76-1.59,7.49,7.49,0,0,0-3.71,1.28,16.47,16.47,0,0,1,2.3,2.35,48.14,48.14,0,0,1,6.06,10.29l1.42,3.06C203.9,52.81,204.35,53.8,204.77,54.82Z"/><path class="cls-2" d="M204.89,54.48c.82-.57,1.67-1.1,2.46-1.61h0l2.84-1.79a155.43,155.43,0,0,1,17.74-26,125.42,125.42,0,0,0-17.29,21.18L207,51.9l-4.42-9.24a32.65,32.65,0,0,0-3.54-5.92,6.87,6.87,0,0,0-1.73-1.62,7.11,7.11,0,0,0-3.26,1.08,20.62,20.62,0,0,1,2.1,2.18,49.21,49.21,0,0,1,6.09,10.35l1.42,3.06C204.07,52.64,204.49,53.55,204.89,54.48Z"/><path class="cls-2" d="M205,54.11c.77-.48,1.53-1,2.24-1.44h.06l2.78-1.76a145.34,145.34,0,0,1,14.54-22A124.4,124.4,0,0,0,210.84,46.4l-3.83,6-4.62-9.61c-.68-1.38-3.45-6.74-5.07-7.39a6.29,6.29,0,0,0-2.83.88,17.2,17.2,0,0,1,1.87,2,48.56,48.56,0,0,1,6.12,10.4l1.42,3.07C204.26,52.47,204.63,53.29,205,54.11Z"/><path class="cls-2" d="M205.09,53.77l1.78-1.16-4.67-9.75c-.69-1.39-3.35-6.49-4.94-7.26a6.14,6.14,0,0,0-2.38.71,16.14,16.14,0,0,1,1.65,1.76,47,47,0,0,1,6.15,10.46l1.44,3.06C204.43,52.3,204.75,53,205.09,53.77Zm2.24-1.44,2.52-1.59a138.62,138.62,0,0,1,11-17.35A121.74,121.74,0,0,0,211,46.52Z"/><path class="cls-2" d="M205.2,53.43c.45-.31.94-.59,1.39-.9L202,43c-.68-1.39-3.23-6.26-4.79-7.14a6.11,6.11,0,0,0-1.9.54c.48.48,1,1,1.41,1.56a48.63,48.63,0,0,1,6.18,10.49l1.42,3.06C204.6,52.13,204.89,52.78,205.2,53.43Zm2.89-1.84,1.59-1a130.1,130.1,0,0,1,7.09-11.79c-1.93,2.55-3.8,5.16-5.53,7.85Z"/><path class="cls-2" d="M205.29,53.09c.34-.22.68-.42,1-.65l-4.51-9.35c-.65-1.39-3.12-6.07-4.62-7a4.6,4.6,0,0,0-1.45.36,11.63,11.63,0,0,1,1.19,1.34,47.43,47.43,0,0,1,6.21,10.54l1.45,3.06C204.77,52,205,52.5,205.29,53.09Zm3.54-2.24.68-.42c.85-1.59,1.73-3.18,2.63-4.74-.22.37-.48.74-.7,1.08Z"/><path class="cls-2" d="M205.4,52.75c.2-.14.4-.25.59-.39l-4.42-9.19c-.65-1.36-3-5.84-4.48-6.86a4.19,4.19,0,0,0-1,.23c.31.34.62.71.93,1.08a49.48,49.48,0,0,1,6.27,10.6l1.42,3.09C205,51.76,205.17,52.24,205.4,52.75Z"/><path class="cls-2" d="M205.48,52.41a.64.64,0,0,0,.2-.14l-4.34-9c-.65-1.34-2.86-5.62-4.33-6.72a2.61,2.61,0,0,0-.46.08c.23.29.49.54.71.82a49.82,49.82,0,0,1,6.27,10.66l1.41,3,0,0C205.14,51.59,205.31,52,205.48,52.41Z"/></g><path class="cls-3" d="M.17,80.22V70.81h3A12.22,12.22,0,0,1,5.47,71a2.44,2.44,0,0,1,1.36.94,2.88,2.88,0,0,1,.54,1.84,3.13,3.13,0,0,1-.31,1.44,2.56,2.56,0,0,1-.8.94,2.34,2.34,0,0,1-1,.43,9,9,0,0,1-1.95.14H2.07v3.54Zm1.9-7.82v2.69H3.12A5.72,5.72,0,0,0,4.62,75a1.4,1.4,0,0,0,.57-.48,1.27,1.27,0,0,0,.22-.71,1.15,1.15,0,0,0-.31-.85,1.3,1.3,0,0,0-.76-.43A7.63,7.63,0,0,0,3,72.4Zm8.87,7.82V70.81h4a6.79,6.79,0,0,1,2.18.25,2.38,2.38,0,0,1,1.11.91,2.94,2.94,0,0,1,.39,1.48A2.48,2.48,0,0,1,18,75.2a2.87,2.87,0,0,1-1.84.88,5.16,5.16,0,0,1,1,.8,11.22,11.22,0,0,1,1.07,1.53l1.14,1.81H17.15l-1.36-2a9.87,9.87,0,0,0-1-1.39,2,2,0,0,0-.57-.4,4.24,4.24,0,0,0-1-.08h-.37v3.91Zm1.93-5.41h1.39A8.6,8.6,0,0,0,16,74.69a1.06,1.06,0,0,0,.51-.39,1.19,1.19,0,0,0,.2-.71,1.16,1.16,0,0,0-.26-.77,1,1,0,0,0-.71-.37c-.17,0-.62,0-1.39,0H12.87Zm9.21.76a6,6,0,0,1,.43-2.41,4.46,4.46,0,0,1,.88-1.3A3.85,3.85,0,0,1,24.6,71a5.39,5.39,0,0,1,2-.37A4.47,4.47,0,0,1,30,71.94a5,5,0,0,1,1.25,3.6A4.94,4.94,0,0,1,30,79.11a4.36,4.36,0,0,1-3.31,1.28,4.48,4.48,0,0,1-3.35-1.28A4.9,4.9,0,0,1,22.08,75.57Zm2-.06A3.48,3.48,0,0,0,24.77,78a2.55,2.55,0,0,0,3.75,0,3.61,3.61,0,0,0,.73-2.46,3.46,3.46,0,0,0-.71-2.41,2.64,2.64,0,0,0-3.79,0A3.53,3.53,0,0,0,24,75.51Zm10.68,4.71V70.81h6.47V72.4H36.62v2.24h3.94v1.58H36.62v4Zm10,0V70.81h7V72.4H46.66v2.09h4.7v1.59h-4.7v2.55H51.9v1.59Zm10.29-3,1.84-.2a2.38,2.38,0,0,0,.68,1.39,2.54,2.54,0,0,0,2.75,0,1.19,1.19,0,0,0,.48-.91.94.94,0,0,0-.2-.57,1.76,1.76,0,0,0-.68-.39,15.24,15.24,0,0,0-1.53-.43,5,5,0,0,1-2.12-.94,2.44,2.44,0,0,1-.88-1.89,2.29,2.29,0,0,1,.42-1.34A2.55,2.55,0,0,1,57,71a4.48,4.48,0,0,1,1.84-.34,3.81,3.81,0,0,1,2.66.79,2.75,2.75,0,0,1,.94,2.1l-1.9.06a1.82,1.82,0,0,0-.51-1,2.07,2.07,0,0,0-1.22-.31,2.13,2.13,0,0,0-1.28.34.72.72,0,0,0-.31.59.8.8,0,0,0,.29.57,4.77,4.77,0,0,0,1.75.62,10.73,10.73,0,0,1,2,.68,2.63,2.63,0,0,1,1,1,2.67,2.67,0,0,1,.37,1.5A2.76,2.76,0,0,1,61,80.05a5.24,5.24,0,0,1-2,.34,4,4,0,0,1-2.75-.82A3.52,3.52,0,0,1,55.05,77.19Zm10.77,0,1.87-.2a2.38,2.38,0,0,0,.68,1.39,2.09,2.09,0,0,0,1.36.42,2.15,2.15,0,0,0,1.39-.39,1.15,1.15,0,0,0,.45-.91.82.82,0,0,0-.19-.57,1.5,1.5,0,0,0-.68-.39,15.09,15.09,0,0,0-1.51-.43A5.17,5.17,0,0,1,67,75.17a2.49,2.49,0,0,1-.45-3.23,2.72,2.72,0,0,1,1.19-1,4.38,4.38,0,0,1,1.84-.34,3.86,3.86,0,0,1,2.66.79,2.75,2.75,0,0,1,.94,2.1l-1.93.06a1.61,1.61,0,0,0-.51-1,1.91,1.91,0,0,0-1.19-.31,2.13,2.13,0,0,0-1.28.34.72.72,0,0,0-.31.59.7.7,0,0,0,.29.57,4.55,4.55,0,0,0,1.73.62,11.29,11.29,0,0,1,2.07.68,2.87,2.87,0,0,1,1,1,2.76,2.76,0,0,1,.36,1.5,2.81,2.81,0,0,1-.42,1.5,2.76,2.76,0,0,1-1.28,1,5.43,5.43,0,0,1-2.07.34A3.9,3.9,0,0,1,67,79.57,3.54,3.54,0,0,1,65.82,77.19Zm11.23,3V70.81H79v9.41Zm5.35-4.65a6,6,0,0,1,.43-2.41,4.46,4.46,0,0,1,.88-1.3A3.9,3.9,0,0,1,84.93,71a5.42,5.42,0,0,1,2-.37,4.42,4.42,0,0,1,3.34,1.3,5,5,0,0,1,1.25,3.6,4.81,4.81,0,0,1-1.25,3.57,4.93,4.93,0,0,1-6.63,0A4.79,4.79,0,0,1,82.4,75.57Zm2-.06A3.58,3.58,0,0,0,85.1,78a2.43,2.43,0,0,0,1.87.82A2.4,2.4,0,0,0,88.84,78a3.61,3.61,0,0,0,.73-2.46,3.51,3.51,0,0,0-.7-2.41,2.66,2.66,0,0,0-3.8,0A3.58,3.58,0,0,0,84.36,75.51Zm10.69,4.71V70.81h1.84l3.85,6.32V70.81h1.79v9.41H100.6L96.8,74v6.18Zm20,0h-2l-.82-2.13H108.4l-.8,2.13h-2l3.66-9.41h2Zm-3.49-3.71L110.24,73,109,76.51Zm6.58,3.71V70.89H120v7.74h4.73v1.59Zm13.41,0V70.81h1.9v3.71h3.71V70.81H139v9.41h-1.9V76.11h-3.71v4.11Zm11.51,0V70.81h4a6.88,6.88,0,0,1,2.21.25,2.1,2.1,0,0,1,1.08.91,2.7,2.7,0,0,1,.43,1.48,2.45,2.45,0,0,1-.63,1.75,2.92,2.92,0,0,1-1.84.88,3.85,3.85,0,0,1,1,.8,8.41,8.41,0,0,1,1.08,1.53l1.16,1.81h-2.27l-1.36-2c-.51-.74-.85-1.19-1-1.39a2.07,2.07,0,0,0-.56-.4,4.47,4.47,0,0,0-1-.08h-.39v3.91Zm1.9-5.41h1.41a8.14,8.14,0,0,0,1.7-.12,1.06,1.06,0,0,0,.54-.39,1.19,1.19,0,0,0,.2-.71,1.15,1.15,0,0,0-.25-.77,1.1,1.1,0,0,0-.71-.37c-.17,0-.63,0-1.39,0h-1.5Zm9.58,5.41V70.81h2.86l1.7,6.43,1.64-6.43h2.87v9.41h-1.76v-7.4L160,80.22h-1.82l-1.84-7.4,0,7.4Zm16.15-3,1.85-.2a2.38,2.38,0,0,0,.68,1.39,2.1,2.1,0,0,0,1.39.42,2.16,2.16,0,0,0,1.36-.39,1.19,1.19,0,0,0,.48-.91,1,1,0,0,0-.2-.57,1.84,1.84,0,0,0-.68-.39c-.23-.09-.74-.23-1.53-.43a5.13,5.13,0,0,1-2.13-.94,2.45,2.45,0,0,1-.85-1.89,2.27,2.27,0,0,1,.4-1.34,2.48,2.48,0,0,1,1.16-1,4.51,4.51,0,0,1,1.84-.34,3.86,3.86,0,0,1,2.67.79,2.74,2.74,0,0,1,.93,2.1l-1.9.06a1.71,1.71,0,0,0-.51-1,2,2,0,0,0-1.19-.31,2.14,2.14,0,0,0-1.3.34.67.67,0,0,0-.28.59.69.69,0,0,0,.28.57,4.4,4.4,0,0,0,1.73.62,9.89,9.89,0,0,1,2,.68,2.59,2.59,0,0,1,1.42,2.47,2.53,2.53,0,0,1-.46,1.5,2.47,2.47,0,0,1-1.27,1,5.24,5.24,0,0,1-2,.34,4,4,0,0,1-2.75-.82A3.53,3.53,0,0,1,170.67,77.19Zm10.89-1.62a5.67,5.67,0,0,1,.45-2.41,4.36,4.36,0,0,1,.85-1.3,4.9,4.9,0,0,1,1.22-.85,5.66,5.66,0,0,1,2-.37,4.54,4.54,0,0,1,3.35,1.3,5,5,0,0,1,1.24,3.6,4.93,4.93,0,0,1-1.24,3.57,4.37,4.37,0,0,1-3.32,1.28,4.42,4.42,0,0,1-3.34-1.28A4.87,4.87,0,0,1,181.56,75.57Zm1.95-.06a3.48,3.48,0,0,0,.77,2.44A2.54,2.54,0,0,0,188,78a3.61,3.61,0,0,0,.74-2.46,3.51,3.51,0,0,0-.74-2.41,2.3,2.3,0,0,0-1.87-.8,2.41,2.41,0,0,0-1.9.8A3.58,3.58,0,0,0,183.51,75.51Zm10.75,4.71V70.89h1.9v7.74h4.73v1.59Zm10-9.41h1.9v5.1a15.38,15.38,0,0,0,.06,1.59,1.63,1.63,0,0,0,.6.93,1.93,1.93,0,0,0,1.24.34,1.78,1.78,0,0,0,1.19-.34,1.23,1.23,0,0,0,.49-.79,12.11,12.11,0,0,0,.08-1.61V70.81h1.93v5a12.05,12.05,0,0,1-.17,2.41,2.44,2.44,0,0,1-.57,1.16,2.41,2.41,0,0,1-1.1.77,4.54,4.54,0,0,1-1.79.28,5.34,5.34,0,0,1-2-.28,2.93,2.93,0,0,1-1.11-.82,2.7,2.7,0,0,1-.54-1.05,12.77,12.77,0,0,1-.17-2.38Zm13.61,9.41V72.4h-2.78V70.81h7.49V72.4H219.8v7.82Zm7.88,0V70.81h1.9v9.41Zm5.33-4.65a5.67,5.67,0,0,1,.45-2.41,4.1,4.1,0,0,1,.88-1.3A4.29,4.29,0,0,1,233.6,71a5.66,5.66,0,0,1,2-.37,4.54,4.54,0,0,1,3.35,1.3,5,5,0,0,1,1.25,3.6A4.94,4.94,0,0,1,239,79.11a4.37,4.37,0,0,1-3.32,1.28,4.42,4.42,0,0,1-3.34-1.28A4.91,4.91,0,0,1,231.08,75.57Zm2-.06A3.48,3.48,0,0,0,233.8,78a2.54,2.54,0,0,0,3.74,0,3.56,3.56,0,0,0,.74-2.46,3.61,3.61,0,0,0-.71-2.41,2.39,2.39,0,0,0-1.9-.8,2.42,2.42,0,0,0-1.9.8A3.58,3.58,0,0,0,233,75.51Zm10.68,4.71V70.81h1.85l3.88,6.32V70.81h1.76v9.41h-1.9L245.48,74v6.18Z"/></g></g></g></svg>